<svg xmlns="http://www.w3.org/2000/svg" viewBox="0 0 32 32">
  <rect width="32" height="32" fill="#000000"/>
  <!-- Main chip body -->
  <rect x="2" y="2" width="28" height="28" fill="#808080"/>
  <rect x="4" y="4" width="24" height="24" fill="#C0C0C0"/>
  
  <!-- Pins -->
  <rect x="0" y="6" width="2" height="2" fill="#FFD700"/>
  <rect x="0" y="10" width="2" height="2" fill="#FFD700"/>
  <rect x="0" y="14" width="2" height="2" fill="#FFD700"/>
  <rect x="0" y="18" width="2" height="2" fill="#FFD700"/>
  <rect x="0" y="22" width="2" height="2" fill="#FFD700"/>
  
  <rect x="30" y="6" width="2" height="2" fill="#FFD700"/>
  <rect x="30" y="10" width="2" height="2" fill="#FFD700"/>
  <rect x="30" y="14" width="2" height="2" fill="#FFD700"/>
  <rect x="30" y="18" width="2" height="2" fill="#FFD700"/>
  <rect x="30" y="22" width="2" height="2" fill="#FFD700"/>
  
  <rect x="6" y="0" width="2" height="2" fill="#FFD700"/>
  <rect x="10" y="0" width="2" height="2" fill="#FFD700"/>
  <rect x="14" y="0" width="2" height="2" fill="#FFD700"/>
  <rect x="18" y="0" width="2" height="2" fill="#FFD700"/>
  <rect x="22" y="0" width="2" height="2" fill="#FFD700"/>
  
  <rect x="6" y="30" width="2" height="2" fill="#FFD700"/>
  <rect x="10" y="30" width="2" height="2" fill="#FFD700"/>
  <rect x="14" y="30" width="2" height="2" fill="#FFD700"/>
  <rect x="18" y="30" width="2" height="2" fill="#FFD700"/>
  <rect x="22" y="30" width="2" height="2" fill="#FFD700"/>
  
  <!-- Circuit lines -->
  <rect x="8" y="8" width="16" height="2" fill="#008000"/>
  <rect x="8" y="12" width="16" height="2" fill="#008000"/>
  <rect x="8" y="16" width="16" height="2" fill="#008000"/>
  <rect x="8" y="20" width="16" height="2" fill="#008000"/>
  
  <rect x="8" y="8" width="2" height="14" fill="#008000"/>
  <rect x="14" y="8" width="2" height="14" fill="#008000"/>
  <rect x="20" y="8" width="2" height="14" fill="#008000"/>
</svg>
